<svg xmlns="http://www.w3.org/2000/svg" version="1.1" xmlns:xlink="http://www.w3.org/1999/xlink" xmlns:svgjs="http://svgjs.dev/svgjs" width="2000" height="297" viewBox="0 0 2000 297"><g transform="matrix(1,0,0,1,-1.2121212121212466,1.1220852321335997)"><svg viewBox="0 0 396 59" data-background-color="#ffffff" preserveAspectRatio="xMidYMid meet" height="297" width="2000" xmlns="http://www.w3.org/2000/svg" xmlns:xlink="http://www.w3.org/1999/xlink"><g id="tight-bounds" transform="matrix(1,0,0,1,0.2400000000000091,-0.22290582052485775)"><svg viewBox="0 0 395.52 59.44581164104973" height="59.44581164104973" width="395.52"><g><svg viewBox="0 0 463.79683064692506 69.70767352941178" height="59.44581164104973" width="395.52"><g transform="matrix(1,0,0,1,68.27683064692506,9.633983823529416)"><svg viewBox="0 0 395.52 50.439705882352946" height="50.439705882352946" width="395.52"><g id="textblocktransform"><svg viewBox="0 0 395.52 50.439705882352946" height="50.439705882352946" width="395.52" id="textblock"><g><svg viewBox="0 0 395.52 50.439705882352946" height="50.439705882352946" width="395.52"><g transform="matrix(1,0,0,1,0,0)"><svg width="395.52" viewBox="-1.1 -48.15 436.15000000000003 56.5" height="50.439705882352946" data-palette-color="#23272f"><path d="M1.9 0L1.9-42.95 13.25-42.95Q18.4-42.95 20.6-39.63 22.8-36.3 22.8-29.9L22.8-29.9Q22.8-23.5 20.85-20.25 18.9-17 13.85-17L13.85-17 10.35-17 10.35 0 1.9 0ZM10.35-24.75L10.85-24.75Q12.4-24.75 13.13-25.33 13.85-25.9 14.08-26.98 14.3-28.05 14.3-30.05L14.3-30.05Q14.3-32.75 13.7-33.95 13.1-35.15 11.3-35.15L11.3-35.15 10.35-35.15 10.35-24.75ZM34.25 0L25.35 0 25.35-43.2 34.25-43.2 34.25 0ZM44.4 0.4Q40.15 0.4 38.57-2.43 37-5.25 37-10.5L37-10.5Q37-14.8 38.12-17.1 39.25-19.4 41.25-20.48 43.25-21.55 47.35-22.85L47.35-22.85 49.75-23.65 49.75-23.75 49.75-27.4Q49.75-28.85 49.17-29.63 48.6-30.4 47.8-30.4L47.8-30.4Q47.1-30.4 46.57-29.75 46.05-29.1 46.05-28L46.05-28 46.05-25.8 37.55-25.8 37.55-27Q37.55-32.4 40.07-34.7 42.6-37 48.3-37L48.3-37Q52.85-37 55.7-34.63 58.55-32.25 58.55-27.9L58.55-27.9 58.55 0 49.85 0 49.85-4.35Q49.2-2.1 47.77-0.85 46.35 0.4 44.4 0.4L44.4 0.4ZM47.85-6.4Q48.85-6.4 49.27-7.23 49.7-8.05 49.7-9.25L49.7-9.25 49.7-19.45Q47.75-18.7 46.82-17.55 45.9-16.4 45.9-14.35L45.9-14.35 45.9-9.65Q45.9-6.4 47.85-6.4L47.85-6.4ZM61.89 0L61.89-36.6 70.64-36.6 70.64-31.95Q71.19-34.2 72.54-35.6 73.89-37 76.14-37L76.14-37Q79.84-37 81.62-34.73 83.39-32.45 83.39-28.25L83.39-28.25 83.39 0 74.79 0 74.79-27.35Q74.79-28.55 74.32-29.4 73.84-30.25 72.84-30.25L72.84-30.25Q71.49-30.25 71.07-29.03 70.64-27.8 70.64-25.75L70.64-25.75 70.64 0 61.89 0ZM86.84 0L86.84-36.6 95.59-36.6 95.59-31.95Q96.14-34.2 97.49-35.6 98.84-37 101.09-37L101.09-37Q104.79-37 106.57-34.73 108.34-32.45 108.34-28.25L108.34-28.25 108.34 0 99.74 0 99.74-27.35Q99.74-28.55 99.27-29.4 98.79-30.25 97.79-30.25L97.79-30.25Q96.44-30.25 96.02-29.03 95.59-27.8 95.59-25.75L95.59-25.75 95.59 0 86.84 0ZM120.49-39.05L111.74-39.05 111.74-45.15 120.49-45.15 120.49-39.05ZM120.49 0L111.74 0 111.74-36.6 120.49-36.6 120.49 0ZM123.94 0L123.94-36.6 132.69-36.6 132.69-31.95Q133.24-34.2 134.59-35.6 135.94-37 138.19-37L138.19-37Q141.89-37 143.66-34.73 145.44-32.45 145.44-28.25L145.44-28.25 145.44 0 136.84 0 136.84-27.35Q136.84-28.55 136.36-29.4 135.89-30.25 134.89-30.25L134.89-30.25Q133.54-30.25 133.11-29.03 132.69-27.8 132.69-25.75L132.69-25.75 132.69 0 123.94 0ZM158.73 5.35Q154.83 5.35 152.61 4.73 150.38 4.1 148.23 2.35L148.23 2.35 151.23-2.7Q154.43-0.8 157.58-0.8L157.58-0.8Q159.63-0.8 160.68-2.1 161.73-3.4 161.73-5.65L161.73-5.65 161.73-7.65Q160.68-3.9 156.18-3.9L156.18-3.9Q152.43-3.9 150.66-6.45 148.88-9 148.88-13.25L148.88-13.25 148.88-27Q148.88-31.85 150.51-34.43 152.13-37 156.18-37L156.18-37Q158.53-37 159.91-35.83 161.28-34.65 161.73-32.5L161.73-32.5 161.73-36.6 170.68-36.6 170.68-6.2Q170.68-0.05 167.83 2.65 164.98 5.35 158.73 5.35L158.73 5.35ZM159.68-10.5Q161.73-10.5 161.73-14.2L161.73-14.2 161.73-27.25Q161.73-28.35 161.13-29.35 160.53-30.35 159.63-30.35L159.63-30.35Q158.48-30.35 158.08-29.53 157.68-28.7 157.68-27.25L157.68-27.25 157.68-14.2Q157.68-12.55 158.08-11.53 158.48-10.5 159.68-10.5L159.68-10.5ZM185.93 0L185.93-42.95 197.28-42.95Q202.43-42.95 204.63-39.63 206.83-36.3 206.83-29.9L206.83-29.9Q206.83-23.5 204.88-20.25 202.93-17 197.88-17L197.88-17 194.38-17 194.38 0 185.93 0ZM194.38-24.75L194.88-24.75Q196.43-24.75 197.15-25.33 197.88-25.9 198.1-26.98 198.33-28.05 198.33-30.05L198.33-30.05Q198.33-32.75 197.73-33.95 197.13-35.15 195.33-35.15L195.33-35.15 194.38-35.15 194.38-24.75ZM220.03 0.4Q209.08 0.4 209.08-10.95L209.08-10.95 209.08-25.65Q209.08-30.85 212-33.93 214.93-37 220.03-37L220.03-37Q225.13-37 228.05-33.93 230.98-30.85 230.98-25.65L230.98-25.65 230.98-10.95Q230.98 0.4 220.03 0.4L220.03 0.4ZM220.03-6.35Q221.08-6.35 221.58-7.1 222.08-7.85 222.08-9.15L222.08-9.15 222.08-27.05Q222.08-30.25 220.03-30.25L220.03-30.25Q217.98-30.25 217.98-27.05L217.98-27.05 217.98-9.15Q217.98-7.85 218.48-7.1 218.98-6.35 220.03-6.35L220.03-6.35ZM242.87 0L234.22 0 234.22-43.2 242.87-43.2 242.87-24 247.07-36.6 256.12-36.6 250.62-20.7 257.62 0 248.32 0 242.87-17.25 242.87 0ZM269.02 0.4Q263.37 0.4 260.92-2.7 258.47-5.8 258.47-11.95L258.47-11.95 258.47-26.65Q258.47-31.7 261.37-34.35 264.27-37 269.47-37L269.47-37Q280.02-37 280.02-26.65L280.02-26.65 280.02-24Q280.02-20 279.92-17.5L279.92-17.5 267.22-17.5 267.22-10.4Q267.22-8.5 267.62-7.43 268.02-6.35 269.32-6.35L269.32-6.35Q270.32-6.35 270.75-6.95 271.17-7.55 271.25-8.33 271.32-9.1 271.32-10.6L271.32-10.6 271.32-14.15 280.02-14.15 280.02-12.05Q280.02-5.65 277.55-2.63 275.07 0.4 269.02 0.4L269.02 0.4ZM267.17-21.85L271.32-21.85 271.32-26.55Q271.32-30.5 269.37-30.5L269.37-30.5Q267.17-30.5 267.17-26.55L267.17-26.55 267.17-21.85ZM283.17 0L283.17-36.6 291.92-36.6 291.92-32.55Q292.57-34.7 294.19-35.88 295.82-37.05 298.22-37.05L298.22-37.05 298.22-29.75Q296.37-29.75 294.14-29.23 291.92-28.7 291.92-28L291.92-28 291.92 0 283.17 0ZM322.46 0.4Q317.26 0.4 314.56-2.78 311.86-5.95 311.86-11.7L311.86-11.7 311.86-32.15Q311.86-37.7 314.56-40.53 317.26-43.35 322.46-43.35L322.46-43.35Q327.66-43.35 330.36-40.53 333.06-37.7 333.06-32.15L333.06-32.15 333.06-11.7Q333.06-5.9 330.36-2.75 327.66 0.4 322.46 0.4L322.46 0.4ZM322.46-7.5Q323.61-7.5 324.01-8.5 324.41-9.5 324.41-11.3L324.41-11.3 324.41-32.3Q324.41-33.7 324.04-34.58 323.66-35.45 322.51-35.45L322.51-35.45Q320.36-35.45 320.36-32.2L320.36-32.2 320.36-11.25Q320.36-9.4 320.81-8.45 321.26-7.5 322.46-7.5L322.46-7.5ZM336.36 0L336.36-36.6 345.11-36.6 345.11-31.95Q345.66-34.2 347.01-35.6 348.36-37 350.61-37L350.61-37Q354.31-37 356.09-34.73 357.86-32.45 357.86-28.25L357.86-28.25 357.86 0 349.26 0 349.26-27.35Q349.26-28.55 348.79-29.4 348.31-30.25 347.31-30.25L347.31-30.25Q345.96-30.25 345.54-29.03 345.11-27.8 345.11-25.75L345.11-25.75 345.11 0 336.36 0ZM370.21 0L361.31 0 361.31-43.2 370.21-43.2 370.21 0ZM382.4-39.05L373.65-39.05 373.65-45.15 382.4-45.15 382.4-39.05ZM382.4 0L373.65 0 373.65-36.6 382.4-36.6 382.4 0ZM385.85 0L385.85-36.6 394.6-36.6 394.6-31.95Q395.15-34.2 396.5-35.6 397.85-37 400.1-37L400.1-37Q403.8-37 405.58-34.73 407.35-32.45 407.35-28.25L407.35-28.25 407.35 0 398.75 0 398.75-27.35Q398.75-28.55 398.28-29.4 397.8-30.25 396.8-30.25L396.8-30.25Q395.45-30.25 395.03-29.03 394.6-27.8 394.6-25.75L394.6-25.75 394.6 0 385.85 0ZM421.05 0.4Q415.4 0.4 412.95-2.7 410.5-5.8 410.5-11.95L410.5-11.95 410.5-26.65Q410.5-31.7 413.4-34.35 416.3-37 421.5-37L421.5-37Q432.05-37 432.05-26.65L432.05-26.65 432.05-24Q432.05-20 431.95-17.5L431.95-17.5 419.25-17.5 419.25-10.4Q419.25-8.5 419.65-7.43 420.05-6.35 421.35-6.35L421.35-6.35Q422.35-6.35 422.77-6.95 423.2-7.55 423.27-8.33 423.35-9.1 423.35-10.6L423.35-10.6 423.35-14.15 432.05-14.15 432.05-12.05Q432.05-5.65 429.57-2.63 427.1 0.4 421.05 0.4L421.05 0.4ZM419.2-21.85L423.35-21.85 423.35-26.55Q423.35-30.5 421.4-30.5L421.4-30.5Q419.2-30.5 419.2-26.55L419.2-26.55 419.2-21.85Z" opacity="1" transform="matrix(1,0,0,1,0,0)" fill="#23272f" class="undefined-text-0" data-fill-palette-color="primary" id="text-0"></path></svg></g></svg></g></svg></g></svg></g><g><svg viewBox="0 0 57.44198375868977 69.70767352941178" height="69.70767352941178" width="57.44198375868977"><g><svg xmlns="http://www.w3.org/2000/svg" xmlns:xlink="http://www.w3.org/1999/xlink" version="1.1" x="0" y="0" viewBox="216.81500000000003 208.43826242839845 78.37679914144977 95.1127375716016" enable-background="new 206 206 100 100" xml:space="preserve" height="69.70767352941178" width="57.44198375868977" class="icon-icon-0" data-fill-palette-color="accent" id="icon-0"><g fill="#149eca" data-fill-palette-color="accent"><path d="M256.412 254.923c-1.99-1.389-3.87-2.7-5.448-4.338-1.199-1.245-2.003-2.484-2.457-3.785-0.206-0.789-0.786-1.406-1.577-1.666-0.486-0.149-0.97-0.154-1.481 0.004-0.775 0.25-1.355 0.868-1.563 1.659-0.46 1.304-1.268 2.543-2.465 3.787-1.579 1.638-3.457 2.95-5.445 4.338-1.871 1.307-3.806 2.658-5.48 4.314-2.92 2.881-4.339 6.056-4.339 9.705 0 3.163 1.231 6.137 3.466 8.372 2.236 2.234 5.212 3.465 8.38 3.465 1.656 0 3.29-0.346 4.79-1.008-1.104 2.192-3.12 3.267-6.104 3.267-1.318 0-2.39 1.068-2.39 2.383 0 1.318 1.072 2.39 2.39 2.39h19.008c1.318 0 2.39-1.071 2.39-2.39 0-1.314-1.071-2.383-2.39-2.383-2.979 0-4.993-1.073-6.1-3.267 1.503 0.662 3.139 1.008 4.793 1.008 3.163 0 6.136-1.23 8.371-3.466 2.241-2.239 3.475-5.213 3.475-8.371 0-3.642-1.419-6.815-4.34-9.704C260.222 257.581 258.284 256.23 256.412 254.923zM261.303 275.855c-1.846 1.845-4.301 2.862-6.913 2.862-1.718 0-3.41-0.452-4.88-1.298-0.371-0.22-0.737-0.467-1.088-0.734-0.339-0.258-0.801-0.281-1.164-0.06-0.363 0.224-0.551 0.646-0.476 1.064 0.884 4.848 3.966 7.409 8.915 7.409 0.178 0 0.328 0.147 0.328 0.321 0 0.178-0.15 0.328-0.328 0.328h-19.008c-0.178 0-0.328-0.15-0.328-0.328 0-0.174 0.15-0.321 0.328-0.321 4.957 0 8.039-2.563 8.914-7.41 0.076-0.419-0.113-0.841-0.476-1.063-0.166-0.102-0.353-0.151-0.539-0.151-0.221 0-0.441 0.071-0.625 0.211-0.379 0.288-0.732 0.527-1.077 0.729-1.476 0.853-3.164 1.304-4.884 1.304-2.617 0-5.075-1.018-6.921-2.862-1.845-1.846-2.861-4.301-2.861-6.913 0-3.111 1.184-5.729 3.726-8.238 1.55-1.533 3.411-2.833 5.211-4.09 1.981-1.384 4.031-2.815 5.75-4.599 1.422-1.477 2.384-2.976 2.942-4.583 0.011-0.033 0.021-0.067 0.029-0.101 0.016-0.067 0.063-0.186 0.192-0.227 0.091-0.029 0.178-0.023 0.235-0.006 0.104 0.034 0.182 0.121 0.208 0.231 0.008 0.034 0.017 0.066 0.028 0.098 0.551 1.608 1.512 3.108 2.937 4.588 1.718 1.783 3.77 3.214 5.752 4.598 1.803 1.257 3.666 2.558 5.215 4.089 2.542 2.517 3.727 5.136 3.727 8.239C264.172 271.55 263.154 274.005 261.303 275.855z" fill="#149eca" data-fill-palette-color="accent"></path><path d="M294.973 271.946l-14.672-58.083c-0.468-1.853-1.635-3.416-3.286-4.402-1.651-0.986-3.581-1.271-5.433-0.803l-43.05 10.875c-1.854 0.467-3.417 1.634-4.402 3.286-0.985 1.651-1.27 3.581-0.801 5.434l0.263 1.041c-3.772 0.21-6.777 3.344-6.777 7.168v59.908c0 3.96 3.221 7.181 7.18 7.181h44.402c3.959 0 7.181-3.221 7.181-7.181v-12.12l14.19-3.584C293.606 279.696 295.941 275.785 294.973 271.946zM273.514 296.37c0 2.822-2.295 5.117-5.117 5.117h-44.402c-2.822 0-5.117-2.295-5.117-5.117v-59.908c0-2.822 2.295-5.117 5.117-5.117h44.402c2.822 0 5.117 2.295 5.117 5.117V296.37zM289.263 278.666l-13.686 3.457v-45.661c0-3.959-3.222-7.18-7.181-7.18h-42.681l-0.387-1.534c-0.333-1.318-0.129-2.694 0.573-3.872 0.703-1.178 1.816-2.01 3.135-2.342l43.05-10.875c1.317-0.333 2.692-0.129 3.87 0.574 1.179 0.704 2.011 1.817 2.345 3.136l14.67 58.083C293.661 275.187 291.997 277.975 289.263 278.666z" fill="#149eca" data-fill-palette-color="accent"></path></g></svg></g></svg></g></svg></g><defs></defs></svg><rect width="395.52" height="59.44581164104973" fill="none" stroke="none" visibility="hidden"></rect></g></svg></g></svg>