<svg xmlns="http://www.w3.org/2000/svg" version="1.1" xmlns:xlink="http://www.w3.org/1999/xlink" xmlns:svgjs="http://svgjs.dev/svgjs" width="128" height="128" viewBox="0 0 128 128"><g transform="matrix(0.8046875,0,0,0.8046875,12.291563525722566,2.753087129934208)"><svg viewBox="0 0 79 95" data-background-color="#ffffff" preserveAspectRatio="xMidYMid meet" height="153" width="128" xmlns="http://www.w3.org/2000/svg" xmlns:xlink="http://www.w3.org/1999/xlink"><g id="tight-bounds" transform="matrix(1,0,0,1,0.15986875211569895,-0.24049999999999727)"><svg viewBox="0 0 78.68026249576859 95.481" height="95.481" width="78.68026249576859"><g><svg viewBox="0 0 78.68026249576859 95.481" height="95.481" width="78.68026249576859"><g><svg viewBox="0 0 78.68026249576859 95.481" height="95.481" width="78.68026249576859"><g id="textblocktransform"><svg viewBox="0 0 78.68026249576859 95.481" height="95.481" width="78.68026249576859" id="textblock"><g><svg viewBox="0 0 78.68026249576859 95.481" height="95.481" width="78.68026249576859"><g><svg viewBox="0 0 78.68026249576859 95.481" height="95.481" width="78.68026249576859"><g><svg xmlns="http://www.w3.org/2000/svg" xmlns:xlink="http://www.w3.org/1999/xlink" version="1.1" x="0" y="0" viewBox="216.81500000000003 208.43826242839845 78.37679914144977 95.1127375716016" enable-background="new 206 206 100 100" xml:space="preserve" height="95.481" width="78.68026249576859" class="icon-icon-0" data-fill-palette-color="accent" id="icon-0"><g fill="#149eca" data-fill-palette-color="accent"><path d="M256.412 254.923c-1.99-1.389-3.87-2.7-5.448-4.338-1.199-1.245-2.003-2.484-2.457-3.785-0.206-0.789-0.786-1.406-1.577-1.666-0.486-0.149-0.97-0.154-1.481 0.004-0.775 0.25-1.355 0.868-1.563 1.659-0.46 1.304-1.268 2.543-2.465 3.787-1.579 1.638-3.457 2.95-5.445 4.338-1.871 1.307-3.806 2.658-5.48 4.314-2.92 2.881-4.339 6.056-4.339 9.705 0 3.163 1.231 6.137 3.466 8.372 2.236 2.234 5.212 3.465 8.38 3.465 1.656 0 3.29-0.346 4.79-1.008-1.104 2.192-3.12 3.267-6.104 3.267-1.318 0-2.39 1.068-2.39 2.383 0 1.318 1.072 2.39 2.39 2.39h19.008c1.318 0 2.39-1.071 2.39-2.39 0-1.314-1.071-2.383-2.39-2.383-2.979 0-4.993-1.073-6.1-3.267 1.503 0.662 3.139 1.008 4.793 1.008 3.163 0 6.136-1.23 8.371-3.466 2.241-2.239 3.475-5.213 3.475-8.371 0-3.642-1.419-6.815-4.34-9.704C260.222 257.581 258.284 256.23 256.412 254.923zM261.303 275.855c-1.846 1.845-4.301 2.862-6.913 2.862-1.718 0-3.41-0.452-4.88-1.298-0.371-0.22-0.737-0.467-1.088-0.734-0.339-0.258-0.801-0.281-1.164-0.06-0.363 0.224-0.551 0.646-0.476 1.064 0.884 4.848 3.966 7.409 8.915 7.409 0.178 0 0.328 0.147 0.328 0.321 0 0.178-0.15 0.328-0.328 0.328h-19.008c-0.178 0-0.328-0.15-0.328-0.328 0-0.174 0.15-0.321 0.328-0.321 4.957 0 8.039-2.563 8.914-7.41 0.076-0.419-0.113-0.841-0.476-1.063-0.166-0.102-0.353-0.151-0.539-0.151-0.221 0-0.441 0.071-0.625 0.211-0.379 0.288-0.732 0.527-1.077 0.729-1.476 0.853-3.164 1.304-4.884 1.304-2.617 0-5.075-1.018-6.921-2.862-1.845-1.846-2.861-4.301-2.861-6.913 0-3.111 1.184-5.729 3.726-8.238 1.55-1.533 3.411-2.833 5.211-4.09 1.981-1.384 4.031-2.815 5.75-4.599 1.422-1.477 2.384-2.976 2.942-4.583 0.011-0.033 0.021-0.067 0.029-0.101 0.016-0.067 0.063-0.186 0.192-0.227 0.091-0.029 0.178-0.023 0.235-0.006 0.104 0.034 0.182 0.121 0.208 0.231 0.008 0.034 0.017 0.066 0.028 0.098 0.551 1.608 1.512 3.108 2.937 4.588 1.718 1.783 3.77 3.214 5.752 4.598 1.803 1.257 3.666 2.558 5.215 4.089 2.542 2.517 3.727 5.136 3.727 8.239C264.172 271.55 263.154 274.005 261.303 275.855z" fill="#149eca" data-fill-palette-color="accent"></path><path d="M294.973 271.946l-14.672-58.083c-0.468-1.853-1.635-3.416-3.286-4.402-1.651-0.986-3.581-1.271-5.433-0.803l-43.05 10.875c-1.854 0.467-3.417 1.634-4.402 3.286-0.985 1.651-1.27 3.581-0.801 5.434l0.263 1.041c-3.772 0.21-6.777 3.344-6.777 7.168v59.908c0 3.96 3.221 7.181 7.18 7.181h44.402c3.959 0 7.181-3.221 7.181-7.181v-12.12l14.19-3.584C293.606 279.696 295.941 275.785 294.973 271.946zM273.514 296.37c0 2.822-2.295 5.117-5.117 5.117h-44.402c-2.822 0-5.117-2.295-5.117-5.117v-59.908c0-2.822 2.295-5.117 5.117-5.117h44.402c2.822 0 5.117 2.295 5.117 5.117V296.37zM289.263 278.666l-13.686 3.457v-45.661c0-3.959-3.222-7.18-7.181-7.18h-42.681l-0.387-1.534c-0.333-1.318-0.129-2.694 0.573-3.872 0.703-1.178 1.816-2.01 3.135-2.342l43.05-10.875c1.317-0.333 2.692-0.129 3.87 0.574 1.179 0.704 2.011 1.817 2.345 3.136l14.67 58.083C293.661 275.187 291.997 277.975 289.263 278.666z" fill="#149eca" data-fill-palette-color="accent"></path></g></svg></g></svg></g></svg></g></svg></g></svg></g></svg></g><defs></defs></svg><rect width="78.68026249576859" height="95.481" fill="none" stroke="none" visibility="hidden"></rect></g></svg></g></svg>